<?xml version="1.0" encoding="UTF-8" standalone="no"?>
<!-- Created with Inkscape (http://www.inkscape.org/) -->

<svg
   xmlns:dc="http://purl.org/dc/elements/1.1/"
   xmlns:cc="http://creativecommons.org/ns#"
   xmlns:rdf="http://www.w3.org/1999/02/22-rdf-syntax-ns#"
   xmlns:svg="http://www.w3.org/2000/svg"
   xmlns="http://www.w3.org/2000/svg"
   xmlns:sodipodi="http://sodipodi.sourceforge.net/DTD/sodipodi-0.dtd"
   xmlns:inkscape="http://www.inkscape.org/namespaces/inkscape"
   width="2440mm"
   height="1220mm"
   viewBox="0 0 2440 1220"
   version="1.1"
   id="svg8"
   inkscape:version="0.92.2 (5c3e80d, 2017-08-06)"
   sodipodi:docname="arcade_v3.svg">
  <defs
     id="defs2">
    <marker
       style="overflow:visible"
       refY="0"
       refX="0"
       orient="auto"
       id="DistanceX">
      <path
         id="path817"
         style="stroke:#000000;stroke-width:0.5"
         d="M 3,-3 -3,3 M 0,-5 V 5"
         inkscape:connector-curvature="0" />
    </marker>
    <pattern
       y="0"
       x="0"
       width="8"
       patternUnits="userSpaceOnUse"
       id="Hatch"
       height="8">
      <path
         id="path820"
         stroke-width="0.25"
         stroke="#000000"
         linecap="square"
         d="M8 4 l-4,4" />
      <path
         id="path822"
         stroke-width="0.25"
         stroke="#000000"
         linecap="square"
         d="M6 2 l-4,4" />
      <path
         id="path824"
         stroke-width="0.25"
         stroke="#000000"
         linecap="square"
         d="M4 0 l-4,4" />
    </pattern>
    <symbol
       id="*MODEL_SPACE" />
    <symbol
       id="*PAPER_SPACE" />
    <marker
       style="overflow:visible"
       refY="0"
       refX="0"
       orient="auto"
       id="DistanceX-0">
      <path
         id="path865"
         style="stroke:#000000;stroke-width:0.5"
         d="M 3,-3 -3,3 M 0,-5 V 5"
         inkscape:connector-curvature="0" />
    </marker>
    <pattern
       y="0"
       x="0"
       width="8"
       patternUnits="userSpaceOnUse"
       id="Hatch-0"
       height="8">
      <path
         id="path868"
         stroke-width="0.25"
         stroke="#000000"
         linecap="square"
         d="M8 4 l-4,4" />
      <path
         id="path870"
         stroke-width="0.25"
         stroke="#000000"
         linecap="square"
         d="M6 2 l-4,4" />
      <path
         id="path872"
         stroke-width="0.25"
         stroke="#000000"
         linecap="square"
         d="M4 0 l-4,4" />
    </pattern>
    <symbol
       id="*MODEL_SPACE-3" />
    <symbol
       id="*PAPER_SPACE-8" />
    <marker
       style="overflow:visible"
       refY="0"
       refX="0"
       orient="auto"
       id="DistanceX-7">
      <path
         id="path913"
         style="stroke:#000000;stroke-width:0.5"
         d="M 3,-3 -3,3 M 0,-5 V 5"
         inkscape:connector-curvature="0" />
    </marker>
    <pattern
       y="0"
       x="0"
       width="8"
       patternUnits="userSpaceOnUse"
       id="Hatch-7"
       height="8">
      <path
         id="path916"
         stroke-width="0.25"
         stroke="#000000"
         linecap="square"
         d="M8 4 l-4,4" />
      <path
         id="path918"
         stroke-width="0.25"
         stroke="#000000"
         linecap="square"
         d="M6 2 l-4,4" />
      <path
         id="path920"
         stroke-width="0.25"
         stroke="#000000"
         linecap="square"
         d="M4 0 l-4,4" />
    </pattern>
    <symbol
       id="*MODEL_SPACE-1" />
    <symbol
       id="*PAPER_SPACE-4" />
    <marker
       style="overflow:visible"
       refY="0"
       refX="0"
       orient="auto"
       id="DistanceX-4">
      <path
         id="path967"
         style="stroke:#000000;stroke-width:0.5"
         d="M 3,-3 -3,3 M 0,-5 V 5"
         inkscape:connector-curvature="0" />
    </marker>
    <pattern
       y="0"
       x="0"
       width="8"
       patternUnits="userSpaceOnUse"
       id="Hatch-77"
       height="8">
      <path
         id="path970"
         stroke-width="0.25"
         stroke="#000000"
         linecap="square"
         d="M8 4 l-4,4" />
      <path
         id="path972"
         stroke-width="0.25"
         stroke="#000000"
         linecap="square"
         d="M6 2 l-4,4" />
      <path
         id="path974"
         stroke-width="0.25"
         stroke="#000000"
         linecap="square"
         d="M4 0 l-4,4" />
    </pattern>
    <symbol
       id="*MODEL_SPACE-4" />
    <symbol
       id="*PAPER_SPACE-9" />
    <marker
       style="overflow:visible"
       refY="0"
       refX="0"
       orient="auto"
       id="DistanceX-5">
      <path
         id="path1027"
         style="stroke:#000000;stroke-width:0.5"
         d="M 3,-3 -3,3 M 0,-5 V 5"
         inkscape:connector-curvature="0" />
    </marker>
    <pattern
       y="0"
       x="0"
       width="8"
       patternUnits="userSpaceOnUse"
       id="Hatch-3"
       height="8">
      <path
         id="path1030"
         stroke-width="0.25"
         stroke="#000000"
         linecap="square"
         d="M8 4 l-4,4" />
      <path
         id="path1032"
         stroke-width="0.25"
         stroke="#000000"
         linecap="square"
         d="M6 2 l-4,4" />
      <path
         id="path1034"
         stroke-width="0.25"
         stroke="#000000"
         linecap="square"
         d="M4 0 l-4,4" />
    </pattern>
    <symbol
       id="*MODEL_SPACE-6" />
    <symbol
       id="*PAPER_SPACE-2" />
    <marker
       style="overflow:visible"
       refY="0"
       refX="0"
       orient="auto"
       id="DistanceX-3">
      <path
         id="path1093"
         style="stroke:#000000;stroke-width:0.5"
         d="M 3,-3 -3,3 M 0,-5 V 5"
         inkscape:connector-curvature="0" />
    </marker>
    <pattern
       y="0"
       x="0"
       width="8"
       patternUnits="userSpaceOnUse"
       id="Hatch-6"
       height="8">
      <path
         id="path1096"
         stroke-width="0.25"
         stroke="#000000"
         linecap="square"
         d="M8 4 l-4,4" />
      <path
         id="path1098"
         stroke-width="0.25"
         stroke="#000000"
         linecap="square"
         d="M6 2 l-4,4" />
      <path
         id="path1100"
         stroke-width="0.25"
         stroke="#000000"
         linecap="square"
         d="M4 0 l-4,4" />
    </pattern>
    <symbol
       id="*MODEL_SPACE-0" />
    <symbol
       id="*PAPER_SPACE-26" />
    <marker
       style="overflow:visible"
       refY="0"
       refX="0"
       orient="auto"
       id="DistanceX-35">
      <path
         id="path1165"
         style="stroke:#000000;stroke-width:0.5"
         d="M 3,-3 -3,3 M 0,-5 V 5"
         inkscape:connector-curvature="0" />
    </marker>
    <pattern
       y="0"
       x="0"
       width="8"
       patternUnits="userSpaceOnUse"
       id="Hatch-1"
       height="8">
      <path
         id="path1168"
         stroke-width="0.25"
         stroke="#000000"
         linecap="square"
         d="M8 4 l-4,4" />
      <path
         id="path1170"
         stroke-width="0.25"
         stroke="#000000"
         linecap="square"
         d="M6 2 l-4,4" />
      <path
         id="path1172"
         stroke-width="0.25"
         stroke="#000000"
         linecap="square"
         d="M4 0 l-4,4" />
    </pattern>
    <symbol
       id="*MODEL_SPACE-18" />
    <symbol
       id="*PAPER_SPACE-1" />
    <marker
       style="overflow:visible"
       refY="0"
       refX="0"
       orient="auto"
       id="DistanceX-47">
      <path
         id="path1243"
         style="stroke:#000000;stroke-width:0.5"
         d="M 3,-3 -3,3 M 0,-5 V 5"
         inkscape:connector-curvature="0" />
    </marker>
    <pattern
       y="0"
       x="0"
       width="8"
       patternUnits="userSpaceOnUse"
       id="Hatch-2"
       height="8">
      <path
         id="path1246"
         stroke-width="0.25"
         stroke="#000000"
         linecap="square"
         d="M8 4 l-4,4" />
      <path
         id="path1248"
         stroke-width="0.25"
         stroke="#000000"
         linecap="square"
         d="M6 2 l-4,4" />
      <path
         id="path1250"
         stroke-width="0.25"
         stroke="#000000"
         linecap="square"
         d="M4 0 l-4,4" />
    </pattern>
    <symbol
       id="*MODEL_SPACE-00" />
    <symbol
       id="*PAPER_SPACE-7" />
    <marker
       style="overflow:visible"
       refY="0"
       refX="0"
       orient="auto"
       id="DistanceX-56">
      <path
         id="path1327"
         style="stroke:#000000;stroke-width:0.5"
         d="M 3,-3 -3,3 M 0,-5 V 5"
         inkscape:connector-curvature="0" />
    </marker>
    <pattern
       y="0"
       x="0"
       width="8"
       patternUnits="userSpaceOnUse"
       id="Hatch-76"
       height="8">
      <path
         id="path1330"
         stroke-width="0.25"
         stroke="#000000"
         linecap="square"
         d="M8 4 l-4,4" />
      <path
         id="path1332"
         stroke-width="0.25"
         stroke="#000000"
         linecap="square"
         d="M6 2 l-4,4" />
      <path
         id="path1334"
         stroke-width="0.25"
         stroke="#000000"
         linecap="square"
         d="M4 0 l-4,4" />
    </pattern>
    <symbol
       id="*MODEL_SPACE-07" />
    <symbol
       id="*PAPER_SPACE-5" />
    <marker
       style="overflow:visible"
       refY="0"
       refX="0"
       orient="auto"
       id="DistanceX-73">
      <path
         id="path1474"
         style="stroke:#000000;stroke-width:0.5"
         d="M 3,-3 -3,3 M 0,-5 V 5"
         inkscape:connector-curvature="0" />
    </marker>
    <pattern
       y="0"
       x="0"
       width="8"
       patternUnits="userSpaceOnUse"
       id="Hatch-4"
       height="8">
      <path
         id="path1477"
         stroke-width="0.25"
         stroke="#000000"
         linecap="square"
         d="M8 4 l-4,4" />
      <path
         id="path1479"
         stroke-width="0.25"
         stroke="#000000"
         linecap="square"
         d="M6 2 l-4,4" />
      <path
         id="path1481"
         stroke-width="0.25"
         stroke="#000000"
         linecap="square"
         d="M4 0 l-4,4" />
    </pattern>
    <symbol
       id="*MODEL_SPACE-61" />
    <symbol
       id="*PAPER_SPACE-0" />
    <marker
       style="overflow:visible"
       refY="0"
       refX="0"
       orient="auto"
       id="DistanceX-6">
      <path
         id="path1573"
         style="stroke:#000000;stroke-width:0.5"
         d="M 3,-3 -3,3 M 0,-5 V 5"
         inkscape:connector-curvature="0" />
    </marker>
    <pattern
       y="0"
       x="0"
       width="8"
       patternUnits="userSpaceOnUse"
       id="Hatch-5"
       height="8">
      <path
         id="path1576"
         stroke-width="0.25"
         stroke="#000000"
         linecap="square"
         d="M8 4 l-4,4" />
      <path
         id="path1578"
         stroke-width="0.25"
         stroke="#000000"
         linecap="square"
         d="M6 2 l-4,4" />
      <path
         id="path1580"
         stroke-width="0.25"
         stroke="#000000"
         linecap="square"
         d="M4 0 l-4,4" />
    </pattern>
    <symbol
       id="*MODEL_SPACE-34" />
    <symbol
       id="*PAPER_SPACE-55" />
    <marker
       style="overflow:visible"
       refY="0"
       refX="0"
       orient="auto"
       id="DistanceX-8">
      <path
         id="path1675"
         style="stroke:#000000;stroke-width:0.5"
         d="M 3,-3 -3,3 M 0,-5 V 5"
         inkscape:connector-curvature="0" />
    </marker>
    <pattern
       y="0"
       x="0"
       width="8"
       patternUnits="userSpaceOnUse"
       id="Hatch-50"
       height="8">
      <path
         id="path1678"
         stroke-width="0.25"
         stroke="#000000"
         linecap="square"
         d="M8 4 l-4,4" />
      <path
         id="path1680"
         stroke-width="0.25"
         stroke="#000000"
         linecap="square"
         d="M6 2 l-4,4" />
      <path
         id="path1682"
         stroke-width="0.25"
         stroke="#000000"
         linecap="square"
         d="M4 0 l-4,4" />
    </pattern>
    <symbol
       id="*MODEL_SPACE-9" />
    <symbol
       id="*PAPER_SPACE-97" />
    <marker
       style="overflow:visible"
       refY="0"
       refX="0"
       orient="auto"
       id="DistanceX-1">
      <path
         id="path1783"
         style="stroke:#000000;stroke-width:0.5"
         d="M 3,-3 -3,3 M 0,-5 V 5"
         inkscape:connector-curvature="0" />
    </marker>
    <pattern
       y="0"
       x="0"
       width="8"
       patternUnits="userSpaceOnUse"
       id="Hatch-64"
       height="8">
      <path
         id="path1786"
         stroke-width="0.25"
         stroke="#000000"
         linecap="square"
         d="M8 4 l-4,4" />
      <path
         id="path1788"
         stroke-width="0.25"
         stroke="#000000"
         linecap="square"
         d="M6 2 l-4,4" />
      <path
         id="path1790"
         stroke-width="0.25"
         stroke="#000000"
         linecap="square"
         d="M4 0 l-4,4" />
    </pattern>
    <symbol
       id="*MODEL_SPACE-30" />
    <symbol
       id="*PAPER_SPACE-07" />
    <marker
       style="overflow:visible"
       refY="0"
       refX="0"
       orient="auto"
       id="DistanceX-69">
      <path
         id="path1957"
         style="stroke:#000000;stroke-width:0.5"
         d="M 3,-3 -3,3 M 0,-5 V 5"
         inkscape:connector-curvature="0" />
    </marker>
    <pattern
       y="0"
       x="0"
       width="8"
       patternUnits="userSpaceOnUse"
       id="Hatch-29"
       height="8">
      <path
         id="path1960"
         stroke-width="0.25"
         stroke="#000000"
         linecap="square"
         d="M8 4 l-4,4" />
      <path
         id="path1962"
         stroke-width="0.25"
         stroke="#000000"
         linecap="square"
         d="M6 2 l-4,4" />
      <path
         id="path1964"
         stroke-width="0.25"
         stroke="#000000"
         linecap="square"
         d="M4 0 l-4,4" />
    </pattern>
    <symbol
       id="*MODEL_SPACE-5" />
    <symbol
       id="*PAPER_SPACE-6" />
    <marker
       style="overflow:visible"
       refY="0"
       refX="0"
       orient="auto"
       id="DistanceX-02">
      <path
         id="path2137"
         style="stroke:#000000;stroke-width:0.5"
         d="M 3,-3 -3,3 M 0,-5 V 5"
         inkscape:connector-curvature="0" />
    </marker>
    <pattern
       y="0"
       x="0"
       width="8"
       patternUnits="userSpaceOnUse"
       id="Hatch-49"
       height="8">
      <path
         id="path2140"
         stroke-width="0.25"
         stroke="#000000"
         linecap="square"
         d="M8 4 l-4,4" />
      <path
         id="path2142"
         stroke-width="0.25"
         stroke="#000000"
         linecap="square"
         d="M6 2 l-4,4" />
      <path
         id="path2144"
         stroke-width="0.25"
         stroke="#000000"
         linecap="square"
         d="M4 0 l-4,4" />
    </pattern>
    <symbol
       id="*MODEL_SPACE-40" />
    <symbol
       id="*PAPER_SPACE-96" />
    <marker
       style="overflow:visible"
       refY="0.0"
       refX="0.0"
       orient="auto"
       id="DistanceX-31">
      <path
         id="path1046"
         style="stroke:#000000; stroke-width:0.5"
         d="M 3,-3 L -3,3 M 0,-5 L  0,5" />
    </marker>
    <pattern
       y="0"
       x="0"
       width="8"
       patternUnits="userSpaceOnUse"
       id="Hatch-03"
       height="8">
      <path
         id="path1049"
         stroke-width="0.25"
         stroke="#000000"
         linecap="square"
         d="M8 4 l-4,4" />
      <path
         id="path1051"
         stroke-width="0.25"
         stroke="#000000"
         linecap="square"
         d="M6 2 l-4,4" />
      <path
         id="path1053"
         stroke-width="0.25"
         stroke="#000000"
         linecap="square"
         d="M4 0 l-4,4" />
    </pattern>
    <symbol
       id="*MODEL_SPACE-57" />
    <symbol
       id="*PAPER_SPACE-84" />
    <marker
       style="overflow:visible"
       refY="0.0"
       refX="0.0"
       orient="auto"
       id="DistanceX-37">
      <path
         id="path1196"
         style="stroke:#000000; stroke-width:0.5"
         d="M 3,-3 L -3,3 M 0,-5 L  0,5" />
    </marker>
    <pattern
       y="0"
       x="0"
       width="8"
       patternUnits="userSpaceOnUse"
       id="Hatch-21"
       height="8">
      <path
         id="path1199"
         stroke-width="0.25"
         stroke="#000000"
         linecap="square"
         d="M8 4 l-4,4" />
      <path
         id="path1201"
         stroke-width="0.25"
         stroke="#000000"
         linecap="square"
         d="M6 2 l-4,4" />
      <path
         id="path1203"
         stroke-width="0.25"
         stroke="#000000"
         linecap="square"
         d="M4 0 l-4,4" />
    </pattern>
    <symbol
       id="*MODEL_SPACE-09" />
    <symbol
       id="*PAPER_SPACE-40" />
    <marker
       style="overflow:visible"
       refY="0.0"
       refX="0.0"
       orient="auto"
       id="DistanceX-74">
      <path
         id="path1352"
         style="stroke:#000000; stroke-width:0.5"
         d="M 3,-3 L -3,3 M 0,-5 L  0,5" />
    </marker>
    <pattern
       y="0"
       x="0"
       width="8"
       patternUnits="userSpaceOnUse"
       id="Hatch-69"
       height="8">
      <path
         id="path1355"
         stroke-width="0.25"
         stroke="#000000"
         linecap="square"
         d="M8 4 l-4,4" />
      <path
         id="path1357"
         stroke-width="0.25"
         stroke="#000000"
         linecap="square"
         d="M6 2 l-4,4" />
      <path
         id="path1359"
         stroke-width="0.25"
         stroke="#000000"
         linecap="square"
         d="M4 0 l-4,4" />
    </pattern>
    <symbol
       id="*MODEL_SPACE-7" />
    <symbol
       id="*PAPER_SPACE-46" />
  </defs>
  <sodipodi:namedview
     id="base"
     pagecolor="#ffffff"
     bordercolor="#666666"
     borderopacity="1.0"
     inkscape:pageopacity="0.0"
     inkscape:pageshadow="2"
     inkscape:zoom="0.0875"
     inkscape:cx="4672.0742"
     inkscape:cy="1323.1586"
     inkscape:document-units="mm"
     inkscape:current-layer="layer4"
     showgrid="false"
     inkscape:measure-start="2520.42,2032.61"
     inkscape:measure-end="2966.41,2032.59"
     inkscape:snap-global="true"
     inkscape:window-width="1842"
     inkscape:window-height="1057"
     inkscape:window-x="70"
     inkscape:window-y="-8"
     inkscape:window-maximized="1"
     units="cm"
     inkscape:pagecheckerboard="true" />
  <metadata
     id="metadata5">
    <rdf:RDF>
      <cc:Work
         rdf:about="">
        <dc:format>image/svg+xml</dc:format>
        <dc:type
           rdf:resource="http://purl.org/dc/dcmitype/StillImage" />
        <dc:title />
      </cc:Work>
    </rdf:RDF>
  </metadata>
  <g
     inkscape:label="Layer 1"
     inkscape:groupmode="layer"
     id="layer1"
     transform="translate(0,923)"
     style="display:inline">
    <g
       inkscape:groupmode="layer"
       id="layer5"
       inkscape:label="Waste"
       sodipodi:insensitive="true"
       style="display:inline">
      <path
         style="opacity:0.25;fill:#00ffff;fill-opacity:1;stroke:none;stroke-width:0.1;stroke-miterlimit:4;stroke-dasharray:none;stroke-opacity:1"
         d="M 6.4859662e-5,-923.00001 V 296.99992 H 2439.9999 V -923.00001 Z M 9.9999733,-913.00011 H 2430 V 287.00002 H 9.9999733 Z"
         id="rect3556"
         inkscape:connector-curvature="0" />
    </g>
    <g
       id="g1839"
       inkscape:label="0"
       transform="matrix(0.26458333,0,0,0.26458333,164.97867,239.61835)"
       style="fill:none;stroke:#ff0000;stroke-width:0.37795275;stroke-miterlimit:4;stroke-dasharray:none;stroke-opacity:1" />
    <g
       inkscape:groupmode="layer"
       id="layer4"
       inkscape:label="Cut"
       style="display:inline">
      <path
         style="fill:#ffffff;fill-opacity:1;stroke:#ff0000;stroke-width:0.1;stroke-miterlimit:4;stroke-dasharray:none;stroke-opacity:1"
         d="m 2318.9993,-434.15344 v 213.18131 a 3.4999998,3.4999998 0 0 1 0.8997,2.3368 3.4999998,3.4999998 0 0 1 -0.8997,2.3368 v 0.19534 h -0.186 a 3.4999998,3.4999998 0 0 1 -2.4143,0.9679 3.4999998,3.4999998 0 0 1 -2.4102,-0.9679 h -12.9889 v 17.99996 h 13.2302 a 3.4999998,3.4999998 0 0 1 2.358,-0.91882 3.4999998,3.4999998 0 0 1 2.3575,0.91882 h 0.054 v 0.0501 a 3.4999998,3.4999998 0 0 1 1.0888,2.53111 3.4999998,3.4999998 0 0 1 -1.0888,2.53527 v 26.93325 h 35.0883 a 3.4999998,3.4999998 0 0 1 2.3771,-0.93483 3.4999998,3.4999998 0 0 1 2.3746,0.93483 h 0.06 v 0.0563 a 3.4999998,3.4999998 0 0 1 1.0645,2.50889 3.4999998,3.4999998 0 0 1 -1.0645,2.51303 v 140.01477 a 3.4999998,3.4999998 0 0 1 0.9705,2.416381 3.4999998,3.4999998 0 0 1 -0.9705,2.412786 v 0.078 h -0.073 a 3.4999998,3.4999998 0 0 1 -2.4568,1.009221 3.4999998,3.4999998 0 0 1 -2.4551,-1.009221 h -34.9157 v 35.999851 h 51.0005 V 6.9323143 a 3.4999998,3.4999998 0 0 1 -0.9999,-2.4484167 3.4999998,3.4999998 0 0 1 0.9999,-2.4438 v -0.0935 h 0.093 a 3.4999998,3.4999998 0 0 1 2.4076,-0.96220997 3.4999998,3.4999998 0 0 1 2.4045,0.96220997 h 45.0955 V -416.15352 h -45.0717 a 3.4999998,3.4999998 0 0 1 -2.42,0.97309 3.4999998,3.4999998 0 0 1 -2.4159,-0.97309 h -0.093 v -0.0858 a 3.4999998,3.4999998 0 0 1 -0.9916,-2.44068 3.4999998,3.4999998 0 0 1 0.9916,-2.43602 v -13.03745 z m 38.0003,87.33007 c 11.0799,0 19.9998,11.2046 19.9998,25.12301 v 24.75351 c 0,13.9183 -8.9199,25.12354 -19.9998,25.12354 -11.0799,0 -19.9998,-11.20524 -19.9998,-25.12354 v -24.75351 c 0,-13.91841 8.9199,-25.12301 19.9998,-25.12301 z"
         id="rect1046"
         inkscape:connector-curvature="0" />
      <g
         id="g1589"
         inkscape:label="0"
         transform="matrix(0.26458333,0,0,0.26458333,87.948512,-11.098857)"
         style="display:inline;fill:#ffffff;fill-opacity:1;stroke:#ff0000;stroke-width:0.37795275;stroke-miterlimit:4;stroke-dasharray:none;stroke-opacity:1" />
      <path
         style="display:inline;fill:#ffffff;fill-opacity:1;stroke:#ff0000;stroke-width:0.37795281;stroke-miterlimit:4;stroke-dasharray:none;stroke-opacity:1"
         d="M 7427.457 75.589844 L 7427.457 124.8457 A 13.228346 13.228346 0 0 1 7431.7324 134.5625 A 13.228346 13.228346 0 0 1 7418.5039 147.79102 A 13.228346 13.228346 0 0 1 7408.8926 143.64062 L 6997.707 143.64062 L 6997.707 1723.7969 L 7408.5859 1723.7969 A 13.228346 13.228346 0 0 1 7418.0859 1719.7539 A 13.228346 13.228346 0 0 1 7431.3145 1732.9824 A 13.228346 13.228346 0 0 1 7427.457 1742.3027 L 7427.457 1791.8477 L 7857.207 1791.8477 L 7857.207 1742.4668 A 13.228346 13.228346 0 0 1 7853.3672 1733.1562 A 13.228346 13.228346 0 0 1 7857.207 1723.8496 L 7857.207 1723.7969 L 7857.2559 1723.7969 A 13.228346 13.228346 0 0 1 7866.5957 1719.9277 A 13.228346 13.228346 0 0 1 7875.9316 1723.7969 L 8268.2148 1723.7969 A 13.228346 13.228346 0 0 1 8277.7188 1719.748 A 13.228346 13.228346 0 0 1 8290.9473 1732.9766 A 13.228346 13.228346 0 0 1 8286.957 1742.4434 L 8286.957 1791.8477 L 8716.707 1791.8477 L 8716.707 1742.6133 A 13.228346 13.228346 0 0 1 8712.5879 1733.043 A 13.228346 13.228346 0 0 1 8725.8164 1719.8145 A 13.228346 13.228346 0 0 1 8735.2754 1723.7969 L 9146.457 1723.7969 L 9146.457 143.64062 L 8735.2949 143.64062 A 13.228346 13.228346 0 0 1 8725.6367 147.85352 A 13.228346 13.228346 0 0 1 8712.4082 134.625 A 13.228346 13.228346 0 0 1 8716.707 124.88477 L 8716.707 75.589844 L 8286.957 75.589844 L 8286.957 124.65039 A 13.228346 13.228346 0 0 1 8291.1328 134.27148 A 13.228346 13.228346 0 0 1 8277.9043 147.5 A 13.228346 13.228346 0 0 1 8268.5781 143.64062 L 7876.0742 143.64062 A 13.228346 13.228346 0 0 1 7866.416 147.85352 A 13.228346 13.228346 0 0 1 7853.1875 134.625 A 13.228346 13.228346 0 0 1 7857.207 125.12891 L 7857.207 75.589844 L 7427.457 75.589844 z M 7150.1211 215.46484 L 7346.6562 215.46484 C 7357.1259 215.46484 7365.5586 223.8979 7365.5586 234.36719 L 7365.5586 464.91016 C 7365.5586 475.37983 7357.1259 483.8125 7346.6562 483.8125 L 7150.1211 483.8125 C 7139.6526 483.8125 7131.2187 475.37983 7131.2188 464.91016 L 7131.2188 234.36719 C 7131.2188 223.8979 7139.6526 215.46484 7150.1211 215.46484 z M 7495.5898 215.46484 L 8648.5742 215.46484 L 8648.5742 1651.9727 L 7495.5898 1651.9727 L 7495.5898 215.46484 z M 7150.1211 1383.625 L 7346.6562 1383.625 C 7357.1259 1383.625 7365.5586 1392.0581 7365.5586 1402.5273 L 7365.5586 1633.0703 C 7365.5586 1643.54 7357.1259 1651.9727 7346.6562 1651.9727 L 7150.1211 1651.9727 C 7139.6518 1651.9727 7131.2187 1643.5399 7131.2188 1633.0703 L 7131.2188 1402.5273 C 7131.2188 1392.0581 7139.6518 1383.625 7150.1211 1383.625 z "
         transform="matrix(0.26458333,0,0,0.26458333,0,-923)"
         id="path1275" />
      <path
         style="fill:#ffffff;fill-opacity:1;stroke:#ff0000;stroke-width:0.10000002;stroke-miterlimit:4;stroke-dasharray:none;stroke-opacity:1"
         d="m 1775.4997,-404.273 v 12.95374 a 3.4999998,3.4999998 0 0 1 1.1901,2.62569 3.4999998,3.4999998 0 0 1 -3.4995,3.50004 3.4999998,3.4999998 0 0 1 -2.5233,-1.0759 h -34.8418 V 67.821713 h 34.7637 a 3.4999998,3.4999998 0 0 1 2.5342,-1.092438 3.4999998,3.4999998 0 0 1 3.5001,3.500041 3.4999998,3.4999998 0 0 1 -1.1235,2.565214 v 13.03073 h 39.6746 V 54.726373 a 3.4999998,3.4999998 0 0 1 -1.096,-2.537301 3.4999998,3.4999998 0 0 1 3.5,-3.500041 3.4999998,3.4999998 0 0 1 2.5704,1.129109 h 34.7002 v -69.681009 h -13.0839 a 3.4999998,3.4999998 0 0 1 -2.5379,1.095534 3.4999998,3.4999998 0 0 1 -3.5,-3.500041 3.4999998,3.4999998 0 0 1 1.1182,-2.560558 v -59.739 a 3.4999998,3.4999998 0 0 1 -1.1182,-2.558495 3.4999998,3.4999998 0 0 1 3.5,-3.50004 3.4999998,3.4999998 0 0 1 2.5285,1.082093 h 13.0933 V -228.90436 h -13.1119 a 3.4999998,3.4999998 0 0 1 -2.5099,1.06555 3.4999998,3.4999998 0 0 1 -3.5,-3.50004 3.4999998,3.4999998 0 0 1 1.1182,-2.56056 v -59.7395 a 3.4999998,3.4999998 0 0 1 -1.1182,-2.55799 3.4999998,3.4999998 0 0 1 3.5,-3.50004 3.4999998,3.4999998 0 0 1 2.5554,1.11207 h 13.0664 v -69.68101 h -34.7839 a 3.4999998,3.4999998 0 0 1 -2.5534,1.1131 3.4999998,3.4999998 0 0 1 -3.5,-3.50004 3.4999998,3.4999998 0 0 1 1.1627,-2.59985 V -404.273 Z"
         id="path981"
         inkscape:connector-curvature="0" />
      <path
         style="fill:#ffffff;fill-opacity:1;stroke:#ff0000;stroke-width:0.10000002;stroke-miterlimit:4;stroke-dasharray:none;stroke-opacity:1"
         d="m 1909.4352,237.27953 c -0.6197,-0.65029 -0.9657,-1.51396 -0.9663,-2.41226 0,-0.89687 0.3476,-1.75887 0.9663,-2.40813 v -29.92323 c -0.6148,-0.64928 -0.9578,-1.50926 -0.9586,-2.40345 0,-0.89313 0.3445,-1.75187 0.9586,-2.40038 l 0.076,-0.0812 c 0.6553,-0.65179 1.5418,-1.01794 2.466,-1.01854 0.9239,8.9e-4 1.8099,0.36702 2.4649,1.01854 h 12.9972 v -48.67655 h -205.0422 c -25.669,0 -50.1287,-10.90855 -67.2807,-30.00592 h -192.7712 v 158.03171 h 465.0931 v -39.67459 h -12.9822 c -0.6568,0.66565 -1.5526,1.0408 -2.4877,1.0418 -0.9356,-6e-4 -1.8321,-0.37578 -2.4892,-1.0418 z"
         id="path1107"
         inkscape:connector-curvature="0"
         sodipodi:nodetypes="cccccccccccsccccccccc" />
      <path
         style="fill:#ffffff;fill-opacity:1;stroke:#ff0000;stroke-width:0.10000002;stroke-miterlimit:4;stroke-dasharray:none;stroke-opacity:1"
         d="m 1918.4598,-423.57026 a 30.005999,30.005999 0 0 0 -30.0044,30.00747 v 80.01372 a 30.005999,30.005999 0 0 0 30.0044,30.00748 h 80.0168 a 30.005999,30.005999 0 0 0 30.0044,-30.00748 v -80.01372 a 30.005999,30.005999 0 0 0 -30.0044,-30.00747 z m 15.0016,28.98945 a 3.4999998,3.4999998 0 0 1 2.4635,1.01802 h 43.7926 a 3.4999998,3.4999998 0 0 1 2.465,-1.01751 3.4999998,3.4999998 0 0 1 2.4634,1.01751 h 0.033 v 0.031 a 3.4999998,3.4999998 0 0 1 1.0036,2.45153 3.4999998,3.4999998 0 0 1 -1.0036,2.44843 v 8.10803 a 3.4999998,3.4999998 0 0 1 1.0036,2.45101 3.4999998,3.4999998 0 0 1 -1.0036,2.44895 v 0.0631 h -0.059 a 3.4999998,3.4999998 0 0 1 -2.4376,0.98805 3.4999998,3.4999998 0 0 1 -2.4324,-0.98805 h -43.818 a 3.4999998,3.4999998 0 0 1 -2.4371,0.98805 3.4999998,3.4999998 0 0 1 -2.4324,-0.98805 h -0.077 v -0.0713 a 3.4999998,3.4999998 0 0 1 -0.9911,-2.44068 3.4999998,3.4999998 0 0 1 0.9911,-2.43499 v -8.10131 a 3.4999998,3.4999998 0 0 1 -1.0247,-2.47169 3.4999998,3.4999998 0 0 1 1.0247,-2.47117 v -0.0109 h 0.01 a 3.4999998,3.4999998 0 0 1 2.4649,-1.01802 z m 48.7547,62.00655 a 3.4999998,3.4999998 0 0 1 3.4995,3.50005 3.4999998,3.4999998 0 0 1 -1.0366,2.4846 v 8.13853 a 3.4999998,3.4999998 0 0 1 1.0036,2.45202 3.4999998,3.4999998 0 0 1 -1.0036,2.44843 v 0.003 0 a 3.4999998,3.4999998 0 0 1 -2.4949,1.05008 3.4999998,3.4999998 0 0 1 -2.4976,-1.05008 h -43.7926 a 3.4999998,3.4999998 0 0 1 -2.4309,0.9829 3.4999998,3.4999998 0 0 1 -2.4267,-0.9829 h -0.049 v -0.0455 a 3.4999998,3.4999998 0 0 1 -1.0247,-2.47168 3.4999998,3.4999998 0 0 1 1.0247,-2.47116 v -8.03259 a 3.4999998,3.4999998 0 0 1 -1.0242,-2.47065 3.4999998,3.4999998 0 0 1 1.0242,-2.47116 v -0.0393 h 0.037 a 3.4999998,3.4999998 0 0 1 2.4386,-0.98959 3.4999998,3.4999998 0 0 1 2.434,0.98959 h 43.8505 a 3.4999998,3.4999998 0 0 1 2.4702,-1.02318 z"
         id="path1817"
         inkscape:connector-curvature="0" />
      <path
         style="fill:#ffffff;fill-opacity:1;stroke:#ff0000;stroke-width:0.10000002;stroke-miterlimit:4;stroke-dasharray:none;stroke-opacity:1"
         d="m 2393.0281,152.74723 26.972,66.24145 h -109.2058 a 3.4999998,3.4999998 0 0 0 -2.4143,-0.96843 3.4999998,3.4999998 0 0 0 -2.4107,0.96843 h -0.053 v 0.0491 a 3.4999998,3.4999998 0 0 0 -1.0366,2.48253 3.4999998,3.4999998 0 0 0 1.0366,2.4841 v 8.03619 a 3.4999998,3.4999998 0 0 0 -0.9881,2.43707 3.4999998,3.4999998 0 0 0 0.9881,2.43137 v 0.0832 h 0.078 a 3.4999998,3.4999998 0 0 0 2.434,0.98547 3.4999998,3.4999998 0 0 0 2.4293,-0.98547 h 47.5692 c 5.524,0 10.0019,4.47797 10.0019,10.00196 v 20.00396 c 0,5.52389 -4.4779,10.00196 -10.0019,10.00196 h -105.021 c -5.5239,0 -10.002,-4.47807 -10.002,-10.00196 v -43.09245 a 3.4999998,3.4999998 0 0 0 1,-2.44846 3.4999998,3.4999998 0 0 0 -1,-2.4448 v -0.0238 h -0.022 a 3.4999998,3.4999998 0 0 0 -2.4779,-1.03148 3.4999998,3.4999998 0 0 0 -2.4784,1.03148 h -31.7123 v -19.70474 l 22.8043,-5.69579 3.0701,12.29072 a 3.4999998,3.4999998 0 0 0 -0.6325,1.99938 3.4999998,3.4999998 0 0 0 1.911,3.11814 l 0.014,0.0589 0.074,-0.0186 a 3.4999998,3.4999998 0 0 0 1.5002,0.34158 3.4999998,3.4999998 0 0 0 2.8086,-1.41801 l 33.1416,-8.27805 a 3.4999998,3.4999998 0 0 0 1.8686,0.54208 3.4999998,3.4999998 0 0 0 3.0355,-1.76681 l 0.07,-0.0176 -0.018,-0.0723 a 3.4999998,3.4999998 0 0 0 0.4129,-1.64333 3.4999998,3.4999998 0 0 0 -1.5482,-2.90163 l -3.2097,-12.84986 52.093,-13.0111 3.0654,12.27421 a 3.4999998,3.4999998 0 0 0 -0.6728,2.05568 3.4999998,3.4999998 0 0 0 3.5,3.50004 3.4999998,3.4999998 0 0 0 2.8335,-1.45262 l 32.384,-8.08942 a 3.4999998,3.4999998 0 0 0 1.6004,0.38809 3.4999998,3.4999998 0 0 0 2.8702,-1.50431 l 0.045,-0.0114 -0.01,-0.0382 a 3.4999998,3.4999998 0 0 0 0.5938,-1.94615 3.4999998,3.4999998 0 0 0 -1.8506,-3.08403 l -3.0969,-12.39822 z"
         id="path3289"
         inkscape:connector-curvature="0" />
      <path
         style="fill:#ffffff;fill-opacity:1;stroke:#ff0000;stroke-width:0.10000001;stroke-miterlimit:4;stroke-dasharray:none;stroke-opacity:1"
         d="m 17.148147,-903.15038 -2.07e-4,450.0902 213.25078,-53.2642 -3.15269,-12.6233 a 3.4999998,3.4999998 0 0 1 -1.69187,-2.9921 3.4999998,3.4999998 0 0 1 0.49733,-1.7904 l -0.0153,-0.061 0.0627,-0.016 a 3.4999998,3.4999998 0 0 1 2.95516,-1.6326 3.4999998,3.4999998 0 0 1 1.73257,0.4617 l 155.26447,-38.7821 a 3.4999998,3.4999998 0 0 1 2.94158,-1.6101 3.4999998,3.4999998 0 0 1 1.71004,0.4482 l 0.0637,-0.016 0.0161,0.065 a 3.4999998,3.4999998 0 0 1 1.71003,3.0029 3.4999998,3.4999998 0 0 1 -0.50838,1.8082 l 3.14583,12.5915 164.7309,-41.1456 -3.15257,-12.6185 a 3.4999998,3.4999998 0 0 1 -1.66717,-2.9764 3.4999998,3.4999998 0 0 1 0.48251,-1.7665 l -0.0263,-0.1053 0.10731,-0.027 a 3.4999998,3.4999998 0 0 1 2.93683,-1.6014 3.4999998,3.4999998 0 0 1 1.70123,0.4429 l 155.182,-38.7605 a 3.4999998,3.4999998 0 0 1 2.96743,-1.6516 3.4999998,3.4999998 0 0 1 1.75087,0.4731 l 0.0857,-0.021 0.0219,0.088 a 3.4999998,3.4999998 0 0 1 1.64138,2.9604 3.4999998,3.4999998 0 0 1 -0.4671,1.7408 l 3.16682,12.6779 164.73103,-41.145 1.2e-4,-97.2808 a 3.4999998,3.4999998 0 0 1 -1.01227,-2.4601 3.4999998,3.4999998 0 0 1 1.01199,-2.4583 l 6.6e-4,-0.019 h 0.0165 a 3.4999998,3.4999998 0 0 1 2.47011,-1.0233 3.4999998,3.4999998 0 0 1 2.46965,1.0235 l 118.15008,-3e-4 a 3.4999998,3.4999998 0 0 1 2.4701,-1.0233 3.4999998,3.4999998 0 0 1 3.4994,3.5006 3.4999998,3.4999998 0 0 1 -1.0511,2.4999 l -10e-5,65.263 116.3489,-29.0613 -3.1645,-12.6619 a 3.4999998,3.4999998 0 0 1 -1.7,-2.997 3.4999998,3.4999998 0 0 1 0.5019,-1.7979 v -0.01 h 0.011 a 3.4999998,3.4999998 0 0 1 2.99,-1.6892 3.4999998,3.4999998 0 0 1 1.788,0.4958 l 100.7571,-25.1668 a 3.4999998,3.4999998 0 0 1 2.981,-1.6742 3.4999998,3.4999998 0 0 1 1.7729,0.4868 h 0.016 v 0.017 a 3.4999998,3.4999998 0 0 1 1.7067,3.0006 3.4999998,3.4999998 0 0 1 -0.5061,1.8043 l 3.1603,12.6454 110.3158,-27.5533 -3.1774,-12.7141 a 3.4999998,3.4999998 0 0 1 -1.6301,-2.9536 3.4999998,3.4999998 0 0 1 0.4598,-1.7295 l -0.017,-0.07 0.071,-0.018 a 3.4999998,3.4999998 0 0 1 2.9863,-1.683 3.4999998,3.4999998 0 0 1 1.7817,0.4921 l 100.7044,-25.1537 a 3.4999998,3.4999998 0 0 1 2.9599,-1.6391 3.4999998,3.4999998 0 0 1 1.7384,0.4655 l 0.074,-0.018 0.019,0.075 a 3.4999998,3.4999998 0 0 1 1.6691,2.9775 3.4999998,3.4999998 0 0 1 -0.4834,1.7672 l 3.1605,12.6465 255.874,-63.9106 a 12.502497,12.502497 0 0 0 -3.0291,-24.6325 l -283.1464,-4e-4 -4e-4,13.0074 a 3.4999998,3.4999998 0 0 1 1.04,2.4857 3.4999998,3.4999998 0 0 1 -1.0399,2.4876 v 0.023 h -0.023 a 3.4999998,3.4999998 0 0 1 -2.4386,0.9893 3.4999998,3.4999998 0 0 1 -2.433,-0.9895 h -126.3876 a 3.4999998,3.4999998 0 0 1 -2.4827,1.0366 3.4999998,3.4999998 0 0 1 -2.4836,-1.0366 h -0.01 v -0.01 a 3.4999998,3.4999998 0 0 1 -1.0093,-2.4566 3.4999998,3.4999998 0 0 1 1.009,-2.4554 l 3e-4,-13.0846 -136.2549,-3e-4 10e-5,13.0456 a 3.4999998,3.4999998 0 0 1 1.0114,2.4587 3.4999998,3.4999998 0 0 1 -1.0116,2.4576 l 4e-4,0.042 -0.04,-3e-4 a 3.4999998,3.4999998 0 0 1 -2.449,1.001 3.4999998,3.4999998 0 0 1 -2.4461,-1.0012 l -126.3546,-2e-4 a 3.4999998,3.4999998 0 0 1 -2.4763,1.0302 3.4999998,3.4999998 0 0 1 -2.4772,-1.0302 h -0.01 v -0.01 a 3.4999998,3.4999998 0 0 1 -1.0129,-2.4605 3.4999998,3.4999998 0 0 1 1.0129,-2.459 l 10e-5,-13.0745 H 867.31547 a 355.24119,355.24119 0 0 0 -86.08593,10.5882 l -383.97934,95.9083 a 109.76819,109.76819 0 0 1 -136.36773,-106.4965 l -25.69407,-2e-4 3.2e-4,132.639 a 3.4999998,3.4999998 0 0 1 0.98697,2.4354 3.4999998,3.4999998 0 0 1 -0.98703,2.4303 l -6.5e-4,0.023 -0.022,-0.01 a 3.4999998,3.4999998 0 0 1 -2.4918,1.0473 3.4999998,3.4999998 0 0 1 -2.49523,-1.047 l -8.03039,-3e-4 a 3.4999998,3.4999998 0 0 1 -2.46471,1.0172 3.4999998,3.4999998 0 0 1 -2.46329,-1.0172 l -0.0375,-7e-4 -2.3e-4,-0.035 a 3.4999998,3.4999998 0 0 1 -0.99975,-2.4483 3.4999998,3.4999998 0 0 1 0.99959,-2.444 l 2.8e-4,-132.6003 z"
         id="path1689"
         inkscape:connector-curvature="0" />
      <path
         style="fill:#ffffff;fill-opacity:1;stroke:#ff0000;stroke-width:0.37795278;stroke-miterlimit:4;stroke-dasharray:none;stroke-opacity:1"
         d="m 1935.4727,3495.8555 v 501.3261 a 13.228346,13.228346 0 0 1 3.6425,9.1055 13.228346,13.228346 0 0 1 -3.6425,9.0918 v 0.2656 h -0.2481 a 13.228346,13.228346 0 0 1 -9.3379,3.8711 13.228346,13.228346 0 0 1 -9.3379,-3.8711 h -49.1211 v 519.7891 h 1716.2481 v -519.7891 h -49.1582 a 13.228346,13.228346 0 0 1 -9.3321,3.8633 13.228346,13.228346 0 0 1 -9.33,-3.8633 h -0.2246 v -0.2226 a 13.228346,13.228346 0 0 1 -3.6739,-9.1426 13.228346,13.228346 0 0 1 3.6739,-9.127 v -501.2968 z"
         transform="matrix(0.26458333,0,0,0.26458333,0,-923)"
         id="path879"
         inkscape:connector-curvature="0" />
      <path
         style="display:inline;fill:#ffffff;fill-opacity:1;stroke:#ff0000;stroke-width:0.10000002;stroke-miterlimit:4;stroke-dasharray:none;stroke-opacity:1"
         d="m 1713.9616,-386.2679 h -169.7912 v -18.0051 h -169.7912 v 18.0051 H 1204.588 v -18.0051 h -169.7912 v 18.0051 h -69.95857 c 0.036,0.5952 0.09,1.1848 0.09,1.789 v 9.1902 c 50.33007,27.9381 86.55907,106.06041 86.55907,198.06231 0,92.001994 -36.229,170.1242947 -86.55907,198.062394 v 10.9791 h 69.86867 v 18.0051 h 169.7911 v -18.0051 h 169.7912 v 18.0051 h 169.7912 v -18.0051 h 169.7912 z"
         id="path1377"
         inkscape:connector-curvature="0" />
      <path
         style="display:inline;fill:#ffffff;fill-opacity:1;stroke:#ff0000;stroke-width:0.37795281;stroke-miterlimit:4;stroke-dasharray:none;stroke-opacity:1"
         d="M 143.63086 1960.543 L 143.63086 2456.666 A 13.228346 13.228346 0 0 1 147.40625 2465.916 A 13.228346 13.228346 0 0 1 143.63086 2475.1523 L 143.63086 2475.5234 L 143.26172 2475.5234 A 13.228346 13.228346 0 0 1 134.17773 2479.1445 A 13.228346 13.228346 0 0 1 125.10742 2475.5234 L 75.589844 2475.5234 L 75.589844 2990.4922 L 124.86914 2990.4922 A 13.228346 13.228346 0 0 1 134.17773 2986.6523 A 13.228346 13.228346 0 0 1 143.48438 2990.4922 L 143.63086 2990.4922 L 143.63086 2990.6289 A 13.228346 13.228346 0 0 1 147.40625 2999.8809 A 13.228346 13.228346 0 0 1 143.63086 3009.1172 L 143.63086 3486.8438 A 13.228346 13.228346 0 0 1 147.40625 3496.0957 A 13.228346 13.228346 0 0 1 143.63086 3505.3301 L 143.63086 3505.4707 L 143.5 3505.4707 A 13.228346 13.228346 0 0 1 134.17773 3509.3242 A 13.228346 13.228346 0 0 1 124.86133 3505.4707 L 75.589844 3505.4707 L 75.589844 4020.4531 L 124.9043 4020.4531 A 13.228346 13.228346 0 0 1 134.17773 4016.6523 A 13.228346 13.228346 0 0 1 143.44141 4020.4531 L 143.63086 4020.4531 L 143.63086 4020.6289 A 13.228346 13.228346 0 0 1 147.40625 4029.8809 A 13.228346 13.228346 0 0 1 143.63086 4039.1172 L 143.63086 4535.4336 L 1723.7871 4535.4336 L 1723.7871 4039.3379 A 13.228346 13.228346 0 0 1 1719.9531 4030.0332 A 13.228346 13.228346 0 0 1 1723.7871 4020.7383 L 1723.7871 4020.4531 L 1724.0703 4020.4531 A 13.228346 13.228346 0 0 1 1733.1816 4016.8047 A 13.228346 13.228346 0 0 1 1742.2793 4020.4531 L 1791.8379 4020.4531 L 1791.8379 3505.4707 L 1742.4629 3505.4707 A 13.228346 13.228346 0 0 1 1733.3203 3509.1445 A 13.228346 13.228346 0 0 1 1724.1953 3505.4707 L 1723.7871 3505.4707 L 1723.7871 3505.082 A 13.228346 13.228346 0 0 1 1720.0938 3495.916 A 13.228346 13.228346 0 0 1 1723.7871 3486.7695 L 1723.7871 3009.2246 A 13.228346 13.228346 0 0 1 1720.0938 3000.0586 A 13.228346 13.228346 0 0 1 1723.7871 2990.9121 L 1723.7871 2990.4922 L 1724.1934 2990.4922 A 13.228346 13.228346 0 0 1 1733.3203 2986.8301 A 13.228346 13.228346 0 0 1 1742.4336 2990.4922 L 1791.8379 2990.4922 L 1791.8379 2475.5234 L 1742.5938 2475.5234 A 13.228346 13.228346 0 0 1 1733.3203 2479.3242 A 13.228346 13.228346 0 0 1 1724.0605 2475.5234 L 1723.7871 2475.5234 L 1723.7871 2475.2598 A 13.228346 13.228346 0 0 1 1720.0938 2466.0957 A 13.228346 13.228346 0 0 1 1723.7871 2456.9473 L 1723.7871 1960.543 L 143.63086 1960.543 z M 752.30859 3157.6172 A 52.913386 52.913386 0 0 1 805.22266 3210.5293 A 52.913386 52.913386 0 0 1 752.30859 3263.4434 A 52.913386 52.913386 0 0 1 699.39648 3210.5293 A 52.913386 52.913386 0 0 1 752.30859 3157.6172 z M 1130.2617 3157.6172 A 52.913386 52.913386 0 0 1 1183.1758 3210.5293 A 52.913386 52.913386 0 0 1 1130.2617 3263.4434 A 52.913386 52.913386 0 0 1 1077.3496 3210.5293 A 52.913386 52.913386 0 0 1 1130.2617 3157.6172 z M 848.64258 3417.7246 A 13.228346 13.228346 0 0 1 858.07617 3421.6836 L 858.11133 3421.6836 L 858.11133 3421.7168 A 13.228346 13.228346 0 0 1 861.87109 3430.9531 A 13.228346 13.228346 0 0 1 858.11133 3440.1699 L 858.11133 3894.3594 A 13.228346 13.228346 0 0 1 861.87109 3903.5957 A 13.228346 13.228346 0 0 1 858.11133 3912.8125 L 858.11133 3913.1211 L 857.81641 3913.1211 A 13.228346 13.228346 0 0 1 848.64258 3916.8242 A 13.228346 13.228346 0 0 1 839.48633 3913.1211 L 808.74414 3913.1211 A 13.228346 13.228346 0 0 1 799.57227 3916.8242 A 13.228346 13.228346 0 0 1 790.41406 3913.1211 L 790.06055 3913.1211 L 790.06055 3912.7852 A 13.228346 13.228346 0 0 1 786.34375 3903.5957 A 13.228346 13.228346 0 0 1 790.06055 3894.4219 L 790.06055 3440.0957 A 13.228346 13.228346 0 0 1 786.70117 3431.3086 A 13.228346 13.228346 0 0 1 790.06055 3422.5195 L 790.06055 3421.6836 L 790.86914 3421.6836 A 13.228346 13.228346 0 0 1 799.92773 3418.0801 A 13.228346 13.228346 0 0 1 808.97852 3421.6836 L 839.2207 3421.6836 A 13.228346 13.228346 0 0 1 848.64258 3417.7246 z M 1082.9277 3417.7246 A 13.228346 13.228346 0 0 1 1092.3613 3421.6836 L 1092.4863 3421.6836 L 1092.4863 3421.8145 A 13.228346 13.228346 0 0 1 1096.1562 3430.9531 A 13.228346 13.228346 0 0 1 1092.4863 3440.0742 L 1092.4863 3894.457 A 13.228346 13.228346 0 0 1 1096.1562 3903.5957 A 13.228346 13.228346 0 0 1 1092.4863 3912.7188 L 1092.4863 3913.1211 L 1092.1016 3913.1211 A 13.228346 13.228346 0 0 1 1082.9297 3916.8242 A 13.228346 13.228346 0 0 1 1073.7715 3913.1211 L 1043.0312 3913.1211 A 13.228346 13.228346 0 0 1 1033.8574 3916.8242 A 13.228346 13.228346 0 0 1 1024.7012 3913.1211 L 1024.4355 3913.1211 L 1024.4355 3912.875 A 13.228346 13.228346 0 0 1 1020.6289 3903.5957 A 13.228346 13.228346 0 0 1 1024.4355 3894.3262 L 1024.4355 3440.1973 A 13.228346 13.228346 0 0 1 1020.9863 3431.3086 A 13.228346 13.228346 0 0 1 1024.4355 3422.4238 L 1024.4355 3421.6836 L 1025.1543 3421.6836 A 13.228346 13.228346 0 0 1 1034.2148 3418.0801 A 13.228346 13.228346 0 0 1 1043.2637 3421.6836 L 1073.5078 3421.6836 A 13.228346 13.228346 0 0 1 1082.9277 3417.7246 z M 724.21875 3547.1816 A 52.913386 52.913386 0 0 1 777.13086 3600.0938 A 52.913386 52.913386 0 0 1 724.21875 3653.0078 A 52.913386 52.913386 0 0 1 671.30469 3600.0938 A 52.913386 52.913386 0 0 1 724.21875 3547.1816 z M 1156.7188 3547.1816 A 52.913386 52.913386 0 0 1 1209.6328 3600.0938 A 52.913386 52.913386 0 0 1 1156.7188 3653.0078 A 52.913386 52.913386 0 0 1 1103.8047 3600.0938 A 52.913386 52.913386 0 0 1 1156.7188 3547.1816 z "
         transform="matrix(0.26458333,0,0,0.26458333,0,-923)"
         id="path831" />
      <path
         style="display:inline;fill:#ffffff;fill-opacity:1;stroke:#ff0000;stroke-width:0.10000001;stroke-miterlimit:4;stroke-dasharray:none;stroke-opacity:1"
         d="m 1818.7438,-427.29394 2e-4,-450.09023 -213.2508,53.2642 3.1527,12.6234 a 3.4999999,3.4999999 0 0 1 1.6919,2.992 3.4999999,3.4999999 0 0 1 -0.4974,1.7904 l 0.015,0.061 -0.063,0.016 a 3.4999999,3.4999999 0 0 1 -2.9551,1.6326 3.4999999,3.4999999 0 0 1 -1.7326,-0.4617 l -155.2645,38.7821 a 3.4999999,3.4999999 0 0 1 -2.9415,1.6101 3.4999999,3.4999999 0 0 1 -1.7101,-0.4482 l -0.064,0.016 -0.016,-0.065 a 3.4999999,3.4999999 0 0 1 -1.71,-3.0029 3.4999999,3.4999999 0 0 1 0.5084,-1.8082 l -3.1459,-12.5915 -164.7309,41.1456 3.1526,12.6185 a 3.4999999,3.4999999 0 0 1 1.6672,2.9764 3.4999999,3.4999999 0 0 1 -0.4826,1.7665 l 0.026,0.1053 -0.1072,0.027 a 3.4999999,3.4999999 0 0 1 -2.9369,1.6014 3.4999999,3.4999999 0 0 1 -1.7012,-0.4429 l -155.1821,38.76052 a 3.4999999,3.4999999 0 0 1 -2.9674,1.6516 3.4999999,3.4999999 0 0 1 -1.7508,-0.4731 l -0.086,0.021 -0.022,-0.088 a 3.4999999,3.4999999 0 0 1 -1.6414,-2.9604 3.4999999,3.4999999 0 0 1 0.4671,-1.7408 l -3.1668,-12.67792 -164.73103,41.14502 -10e-5,97.28081 a 3.4999999,3.4999999 0 0 1 1.01227,2.4601 3.4999999,3.4999999 0 0 1 -1.01201,2.4583 v 0.019 h -0.0164 a 3.4999999,3.4999999 0 0 1 -2.47013,1.0233 3.4999999,3.4999999 0 0 1 -2.46964,-1.0235 l -118.15009,2e-4 a 3.4999999,3.4999999 0 0 1 -2.47009,1.0233 3.4999999,3.4999999 0 0 1 -3.49938,-3.5006 3.4999999,3.4999999 0 0 1 1.0511,-2.4999 l 1e-4,-65.26295 -116.34889,29.06125 3.1645,12.6619 a 3.4999999,3.4999999 0 0 1 1.7,2.997 3.4999999,3.4999999 0 0 1 -0.5019,1.7979 v 0.01 h -0.011 a 3.4999999,3.4999999 0 0 1 -2.99,1.6892 3.4999999,3.4999999 0 0 1 -1.788,-0.4958 l -100.7571,25.1668 a 3.4999999,3.4999999 0 0 1 -2.981,1.6742 3.4999999,3.4999999 0 0 1 -1.7729,-0.4868 h -0.016 v -0.017 a 3.4999999,3.4999999 0 0 1 -1.7067,-3.0006 3.4999999,3.4999999 0 0 1 0.5061,-1.8043 l -3.1603,-12.6454 -110.3158,27.5533 3.1774,12.7141 a 3.4999999,3.4999999 0 0 1 1.6301,2.9536 3.4999999,3.4999999 0 0 1 -0.4598,1.7295 l 0.017,0.07 -0.071,0.018 a 3.4999999,3.4999999 0 0 1 -2.9863,1.683 3.4999999,3.4999999 0 0 1 -1.7817,-0.4921 l -100.7045,25.1537 a 3.4999999,3.4999999 0 0 1 -2.9598,1.6391 3.4999999,3.4999999 0 0 1 -1.7384,-0.4655 l -0.074,0.018 -0.019,-0.075 a 3.4999999,3.4999999 0 0 1 -1.6691,-2.9775 3.4999999,3.4999999 0 0 1 0.4834,-1.7672 l -3.1605,-12.6465 -255.874,63.9106 a 12.502497,12.502497 0 0 0 3.0289,24.6326 l 283.1464,4e-4 v -13.0074 a 3.4999999,3.4999999 0 0 1 -1.04,-2.4857 3.4999999,3.4999999 0 0 1 1.0399,-2.4876 v -0.023 h 0.023 a 3.4999999,3.4999999 0 0 1 2.4387,-0.9893 3.4999999,3.4999999 0 0 1 2.433,0.9895 h 126.3876 a 3.4999999,3.4999999 0 0 1 2.4826,-1.0366 3.4999999,3.4999999 0 0 1 2.4837,1.0366 h 0.01 v 0.01 a 3.4999999,3.4999999 0 0 1 1.0093,2.4566 3.4999999,3.4999999 0 0 1 -1.009,2.4554 v 13.0846 l 136.2549,3e-4 -1e-4,-13.0456 a 3.4999999,3.4999999 0 0 1 -1.0114,-2.4587 3.4999999,3.4999999 0 0 1 1.0116,-2.4576 v -0.042 l 0.04,3e-4 a 3.4999999,3.4999999 0 0 1 2.449,-1.001 3.4999999,3.4999999 0 0 1 2.4461,1.0012 l 126.35459,2e-4 a 3.4999999,3.4999999 0 0 1 2.4763,-1.0302 3.4999999,3.4999999 0 0 1 2.4772,1.0302 h 0.01 v 0.01 a 3.4999999,3.4999999 0 0 1 1.013,2.4605 3.4999999,3.4999999 0 0 1 -1.013,2.459 l -1e-4,13.0745 h 158.25887 a 355.2412,355.2412 0 0 0 86.08583,-10.5882 l 383.9794,-95.9083 a 109.76819,109.76819 0 0 1 136.3677,106.4965 l 25.6941,2e-4 -3e-4,-132.639 a 3.4999999,3.4999999 0 0 1 -0.9869,-2.4354 3.4999999,3.4999999 0 0 1 0.987,-2.4303 l 5e-4,-0.023 0.022,0.01 a 3.4999999,3.4999999 0 0 1 2.4918,-1.0473 3.4999999,3.4999999 0 0 1 2.4953,1.047 l 8.0304,3e-4 a 3.4999999,3.4999999 0 0 1 2.4647,-1.0172 3.4999999,3.4999999 0 0 1 2.4633,1.0172 l 0.038,8e-4 2e-4,0.035 a 3.4999999,3.4999999 0 0 1 0.9997,2.4483 3.4999999,3.4999999 0 0 1 -0.9996,2.444 l -2e-4,132.6003 z"
         id="path1689-3"
         inkscape:connector-curvature="0" />
      <path
         inkscape:connector-curvature="0"
         style="display:inline;fill:#ffffff;fill-opacity:1;stroke:#ff0000;stroke-width:0.10000002;stroke-miterlimit:4;stroke-dasharray:none;stroke-opacity:1"
         d="m 1971.5376,152.74723 -26.972,66.24145 h 109.2058 a 3.4999999,3.4999999 0 0 1 2.4143,-0.96843 3.4999999,3.4999999 0 0 1 2.4107,0.96843 h 0.053 v 0.0491 a 3.4999999,3.4999999 0 0 1 1.0366,2.48253 3.4999999,3.4999999 0 0 1 -1.0366,2.4841 v 8.03619 a 3.4999999,3.4999999 0 0 1 0.988,2.43707 3.4999999,3.4999999 0 0 1 -0.988,2.43137 v 0.0832 h -0.078 a 3.4999999,3.4999999 0 0 1 -2.4339,0.98547 3.4999999,3.4999999 0 0 1 -2.4293,-0.98547 h -47.5692 c -5.524,0 -10.0019,4.47797 -10.0019,10.00196 v 20.00396 c 0,5.52389 4.4779,10.00196 10.0019,10.00196 h 105.021 c 5.5239,0 10.002,-4.47807 10.002,-10.00196 v -43.09245 a 3.4999999,3.4999999 0 0 1 -1,-2.44846 3.4999999,3.4999999 0 0 1 1,-2.4448 v -0.0238 h 0.022 a 3.4999999,3.4999999 0 0 1 2.4779,-1.03148 3.4999999,3.4999999 0 0 1 2.4784,1.03148 h 31.7123 v -19.70474 l -22.8043,-5.69579 -3.0701,12.29072 a 3.4999999,3.4999999 0 0 1 0.6325,1.99937 3.4999999,3.4999999 0 0 1 -1.911,3.11814 l -0.015,0.0589 -0.074,-0.0185 a 3.4999999,3.4999999 0 0 1 -1.5002,0.34157 3.4999999,3.4999999 0 0 1 -2.8086,-1.41801 l -33.1416,-8.27804 a 3.4999999,3.4999999 0 0 1 -1.8686,0.54208 3.4999999,3.4999999 0 0 1 -3.0355,-1.76681 l -0.07,-0.0175 0.018,-0.0723 a 3.4999999,3.4999999 0 0 1 -0.4129,-1.64333 3.4999999,3.4999999 0 0 1 1.5482,-2.90163 l 3.2096,-12.84986 -52.0929,-13.0111 -3.0655,12.27421 a 3.4999999,3.4999999 0 0 1 0.6729,2.05568 3.4999999,3.4999999 0 0 1 -3.5001,3.50004 3.4999999,3.4999999 0 0 1 -2.8334,-1.45262 l -32.3841,-8.08942 a 3.4999999,3.4999999 0 0 1 -1.6004,0.38809 3.4999999,3.4999999 0 0 1 -2.8701,-1.50431 l -0.045,-0.0114 0.01,-0.0382 a 3.4999999,3.4999999 0 0 1 -0.5937,-1.94614 3.4999999,3.4999999 0 0 1 1.8505,-3.08404 l 3.097,-12.39822 z"
         id="path3289-3" />
      <path
         inkscape:connector-curvature="0"
         style="display:inline;fill:#ffffff;fill-opacity:1;stroke:#ff0000;stroke-width:0.10000002;stroke-miterlimit:4;stroke-dasharray:none;stroke-opacity:1"
         d="M 1438.423,118.96841 V 277.00012 H 973.33018 v -39.67459 h 12.98211 a 3.4999999,3.4999999 0 0 0 2.4877,1.0418 3.4999999,3.4999999 0 0 0 2.48927,-1.0418 h 0.044 v -0.046 a 3.4999999,3.4999999 0 0 0 0.9663,-2.41226 3.4999999,3.4999999 0 0 0 -0.9663,-2.40813 V 202.5359 a 3.4999999,3.4999999 0 0 0 0.9586,-2.40345 3.4999999,3.4999999 0 0 0 -0.9586,-2.40038 v -0.0811 h -0.075 a 3.4999999,3.4999999 0 0 0 -2.46597,-1.01854 3.4999999,3.4999999 0 0 0 -2.465,1.01854 h -12.99711 v -48.67661 h 205.04102 a 90.432972,90.432972 0 0 0 67.2806,-30.00595 z"
         id="path1107-2" />
      <path
         style="display:inline;fill:#ffffff;fill-opacity:1;stroke:#ff0000;stroke-width:0.10000002;stroke-miterlimit:4;stroke-dasharray:none;stroke-opacity:1"
         d="m 516.82052,-404.273 v 62.04323 c 0.65273,0.6554 1.01947,1.54257 1.0201,2.46756 0,0.92464 -0.36761,1.81133 -1.0201,2.4665 v 0.0357 h -0.0331 c -0.65379,0.63945 -1.53186,0.99764 -2.44637,0.99788 -0.91326,0 -1.78988,-0.35931 -2.44273,-0.99788 h -13.08137 v 67.01348 h 13.07412 c 0.65407,-0.64167 1.53371,-1.00123 2.44998,-1.0015 0.91501,0 1.79317,0.36073 2.44637,1.0015 h 0.0331 v 0.031 c 0.65291,0.65532 1.01986,1.5425 1.02061,2.46756 0,0.92451 -0.36807,1.81104 -1.02061,2.46599 v 57.08126 c 0.64352,0.65437 1.00431,1.5353 1.0046,2.45309 0,0.91652 -0.36195,1.79599 -1.0046,2.44946 v 0.0651 h -0.0615 c -0.6527,0.63193 -1.52548,0.98531 -2.43398,0.98547 -0.90665,-0.003 -1.77739,-0.35478 -2.42877,-0.98547 h -13.0793 v 67.01348 h 13.07308 c 0.65419,-0.64309 1.53469,-1.00364 2.45206,-1.00406 0.91628,0 1.79551,0.36171 2.44895,1.00406 h 0.0294 v 0.0274 c 0.65355,0.6554 1.0209,1.54299 1.02164,2.46859 0,0.9254 -0.3682,1.81279 -1.02164,2.46806 v 44.045898 h 64.73042 c 0.65222,-0.629603 1.52328,-0.981604 2.42983,-0.981869 0.9049,0.0029 1.77411,0.353377 2.42517,0.981869 h 0.0951 v 0.09043 c 0.62836,0.652039 0.97954,1.522254 0.97978,2.427738 -0.003,0.903922 -0.35253,1.772258 -0.97978,2.423133 V -69.2061 h 69.68048 v -13.025041 c -0.65305,-0.655452 -1.02,-1.542811 -1.0206,-2.468059 0,-0.924904 0.36782,-1.811867 1.0206,-2.467055 v -0.04339 h 0.0403 c 0.65328,-0.634683 1.52829,-0.989701 2.43912,-0.989621 0.90887,0.0029 1.78154,0.356314 2.43345,0.989621 H 790.5536 c 0.6545,-0.64479 1.53636,-1.006369 2.45515,-1.006661 0.91771,0 1.79824,0.362612 2.45205,1.006661 h 0.0822 v 0.08112 c 0.61952,0.650372 0.96533,1.514025 0.96583,2.412259 0,0.896805 -0.34732,1.758818 -0.96583,2.408132 V -69.2061 h 69.6805 v -13.099971 c -0.63259,-0.65278 -0.98639,-1.52609 -0.9865,-2.434986 0,-0.907204 0.35521,-1.778371 0.9865,-2.429828 v -0.03876 h 0.0357 c 0.6559,-0.659316 1.54736,-1.030473 2.47737,-1.031478 0.93059,0 1.82261,0.371792 2.47891,1.031478 h 64.68803 v -44.032985 c -0.63018,-0.65228 -0.98258,-1.52379 -0.98287,-2.43086 0,-0.90559 0.35359,-1.77541 0.98287,-2.42671 v -0.11938 h 0.11835 c 0.64881,-0.61203 1.50691,-0.95324 2.39882,-0.95395 0.89069,0.003 1.74731,0.34277 2.39519,0.95395 h 13.09121 v -67.01348 h -13.06123 c -0.6535,0.63675 -1.52988,0.99314 -2.44221,0.99322 -0.9108,0 -1.7853,-0.35758 -2.43758,-0.99322 h -0.062 v -0.0579 c -0.64079,-0.654 -0.99983,-1.53323 -0.99994,-2.44893 0,-0.91427 0.36012,-1.79173 0.99994,-2.4448 v -57.06732 c -0.6554,-0.65566 -1.02404,-1.54458 -1.02476,-2.47168 0,-0.92694 0.36947,-1.81565 1.02476,-2.47118 v -0.0517 h 0.0511 c 0.65173,-0.62666 1.52067,-0.97687 2.42467,-0.97721 0.90231,0.003 1.76919,0.35176 2.41948,0.97721 h 13.10879 v -67.01348 h -13.05968 c -0.65349,0.63789 -1.53059,0.99505 -2.44377,0.99528 -0.91181,0 -1.78715,-0.3584 -2.43964,-0.99528 h -0.061 v -0.0563 c -0.64071,-0.65394 -0.99965,-1.53291 -0.99994,-2.44843 0,-0.91426 0.36012,-1.79173 0.99994,-2.4448 v -62.06339 H 725.86255 Z m 202.48324,39.00847 c 0.94451,-5e-5 1.84894,0.38161 2.50786,1.05834 h 8.10596 c 0.65778,-0.67556 1.56032,-1.05715 2.50322,-1.05834 1.93283,0 3.49954,1.56721 3.49951,3.50004 -8e-5,0.94433 -0.38174,1.84854 -1.05833,2.50733 v 8.10598 c 0.67556,0.65778 1.05714,1.5603 1.05833,2.5032 3e-5,1.93283 -1.56668,3.49978 -3.49951,3.50004 -0.94451,5e-5 -1.84894,-0.38163 -2.50785,-1.05833 h -8.10599 c -0.65778,0.67556 -1.5603,1.05714 -2.5032,1.05833 -1.93302,3e-5 -3.50006,-1.56702 -3.50004,-3.50004 -5e-5,-0.94451 0.38161,-1.84893 1.05834,-2.50785 v -8.10649 c -0.6753,-0.65754 -1.05686,-1.55961 -1.05834,-2.50217 -2e-5,-1.93302 1.56702,-3.50006 3.50004,-3.50004 z m 0,68.4666 c 0.94451,-2e-5 1.84886,0.38164 2.50786,1.05833 h 8.10596 c 0.6578,-0.67556 1.5604,-1.05714 2.50322,-1.05833 1.93289,0 3.49951,1.56723 3.49951,3.50007 -8e-5,0.9443 -0.38171,1.84854 -1.05833,2.50732 v 8.10596 c 0.67561,0.65778 1.05714,1.56033 1.05833,2.50323 0,1.93283 -1.56662,3.49977 -3.49951,3.50004 -0.94451,5e-5 -1.84896,-0.38164 -2.50785,-1.05834 h -8.10599 c -0.65778,0.67556 -1.5603,1.05715 -2.5032,1.05834 -1.93299,2e-5 -3.50014,-1.56703 -3.50004,-3.50004 -10e-5,-0.94451 0.38164,-1.84894 1.05834,-2.50786 v -8.10649 c -0.6753,-0.65754 -1.05683,-1.55964 -1.05834,-2.50216 -10e-5,-1.93302 1.56705,-3.50009 3.50004,-3.50007 z m -50.00006,50.00006 c 0.94451,-5e-5 1.84886,0.38161 2.50786,1.05833 h 8.10598 c 0.65778,-0.67556 1.56041,-1.05714 2.5032,-1.05833 1.93291,0 3.49954,1.56721 3.49954,3.50004 -1.1e-4,0.94432 -0.38174,1.84856 -1.05833,2.50735 v 8.10596 c 0.67558,0.65778 1.05711,1.5603 1.05833,2.5032 0,1.93283 -1.56663,3.49977 -3.49954,3.50006 -0.94451,3e-5 -1.84896,-0.38163 -2.50785,-1.05833 h -8.10596 c -0.65781,0.67556 -1.5603,1.05714 -2.50323,1.05833 -1.93299,0 -3.50014,-1.56704 -3.50004,-3.50006 -1e-4,-0.94451 0.38164,-1.84894 1.05834,-2.50786 v -8.10649 c -0.6753,-0.65754 -1.05683,-1.55961 -1.05834,-2.50216 -1e-4,-1.93302 1.56705,-3.50007 3.50004,-3.50004 z m 50.00006,0 c 0.94451,-5e-5 1.84886,0.38161 2.50786,1.05833 h 8.10596 c 0.6578,-0.67556 1.5604,-1.05714 2.50322,-1.05833 1.93289,0 3.49951,1.56721 3.49951,3.50004 -8e-5,0.94432 -0.38171,1.84856 -1.05833,2.50735 v 8.10596 c 0.67561,0.65778 1.05714,1.5603 1.05833,2.5032 0,1.93283 -1.56662,3.49977 -3.49951,3.50006 -0.94451,3e-5 -1.84896,-0.38163 -2.50785,-1.05833 h -8.10599 c -0.65778,0.67556 -1.5603,1.05714 -2.5032,1.05833 -1.93299,0 -3.50014,-1.56704 -3.50004,-3.50006 -10e-5,-0.94451 0.38164,-1.84894 1.05834,-2.50786 v -8.10649 c -0.6753,-0.65754 -1.05683,-1.55961 -1.05834,-2.50216 -10e-5,-1.93302 1.56705,-3.50007 3.50004,-3.50004 z m 50.00006,0 c 0.94448,-5e-5 1.84886,0.38161 2.50785,1.05833 h 8.10596 c 0.65781,-0.67556 1.56041,-1.05714 2.5032,-1.05833 1.93291,0 3.49954,1.56721 3.49954,3.50004 -1.1e-4,0.94432 -0.38174,1.84856 -1.05833,2.50735 v 8.10596 c 0.67558,0.65778 1.05714,1.5603 1.05833,2.5032 0,1.93283 -1.56663,3.49977 -3.49954,3.50006 -0.94448,3e-5 -1.84896,-0.38163 -2.50785,-1.05833 h -8.10596 c -0.65781,0.67556 -1.5603,1.05714 -2.5032,1.05833 -1.93302,0 -3.50015,-1.56704 -3.50007,-3.50006 -8e-5,-0.94451 0.38164,-1.84894 1.05834,-2.50786 v -8.10649 c -0.6753,-0.65754 -1.05683,-1.55961 -1.05834,-2.50216 -8e-5,-1.93302 1.56705,-3.50007 3.50007,-3.50004 z m -50.00006,50.00006 c 0.94451,-6e-5 1.84886,0.38161 2.50786,1.05833 h 8.10596 c 0.6578,-0.67556 1.5604,-1.05714 2.50322,-1.05833 1.93289,0 3.49951,1.5672 3.49951,3.50004 -8e-5,0.94432 -0.38171,1.84856 -1.05833,2.50732 v 8.10599 c 0.67561,0.65778 1.05714,1.5603 1.05833,2.5032 0,1.93283 -1.56662,3.49977 -3.49951,3.50004 -0.94451,5e-5 -1.84896,-0.38164 -2.50785,-1.05834 h -8.10599 c -0.65778,0.67559 -1.5603,1.05715 -2.5032,1.05834 -1.93299,2e-5 -3.50014,-1.56703 -3.50004,-3.50004 -10e-5,-0.94451 0.38164,-1.84894 1.05834,-2.50786 v -8.10649 c -0.6753,-0.65754 -1.05683,-1.55961 -1.05834,-2.50216 -10e-5,-1.93302 1.56705,-3.50007 3.50004,-3.50004 z"
         id="path1281"
         inkscape:connector-curvature="0" />
      <path
         style="display:inline;fill:#ffffff;fill-opacity:1;stroke:#ff0000;stroke-width:0.10000002;stroke-miterlimit:4;stroke-dasharray:none;stroke-opacity:1"
         d="m 2252.3953,-199.79588 -0.069,-0.1515 h -66.9438 v 12.9967 c 0.6614,0.6563 1.0337,1.5493 1.0346,2.481 0,0.9321 -0.3729,1.8254 -1.0346,2.482 v 0.044 h -0.044 c -0.6513,0.6245 -1.5186,0.9733 -2.421,0.9736 -0.9007,0 -1.7662,-0.3503 -2.4164,-0.9736 h -57.149 c -0.6565,0.6645 -1.5514,1.0391 -2.4856,1.0403 -0.9351,0 -1.831,-0.3751 -2.4882,-1.0403 h -0.01 v -0.01 c -0.6426,-0.6542 -1.0023,-1.5351 -1.0025,-2.4521 0,-0.9158 0.3608,-1.7946 1.0025,-2.4479 v -13.0958 h -67.014 v 13.0039 c 0.6564,0.6557 1.0255,1.5458 1.0263,2.4737 0,0.9278 -0.3699,1.8174 -1.0263,2.4732 v 0.053 h -0.053 c -0.6514,0.6245 -1.5187,0.9733 -2.4211,0.9736 -0.9005,0 -1.7658,-0.3503 -2.4158,-0.9736 h -57.1495 c -0.6565,0.6645 -1.5515,1.0392 -2.4857,1.0403 -0.935,0 -1.831,-0.3751 -2.4882,-1.0403 -0.6475,-0.6548 -1.0108,-1.5384 -1.0113,-2.4592 0,-0.9201 0.3644,-1.8026 1.0113,-2.4567 v -13.0876 h -67.0114 v 39.6751 h 13.0607 c 0.655,-0.6501 1.5401,-1.0153 2.4629,-1.016 0.9226,0 1.8081,0.3661 2.4629,1.016 h 0.017 v 0.016 c 0.6531,0.6555 1.0201,1.54281 1.0206,2.46811 0,0.92481 -0.3678,1.81181 -1.0206,2.46702 v 74.398031 h 317.0629 z m -39.008,20.2876 a 3.4999998,3.4999998 0 0 1 -1.0583,2.5074 v 41.10607 a 3.4999998,3.4999998 0 0 1 1.0583,2.50319 3.4999998,3.4999998 0 0 1 -3.5,3.50001 3.4999998,3.4999998 0 0 1 -2.5079,-1.0583 h -8.106 a 3.4999998,3.4999998 0 0 1 -2.5026,1.0583 3.4999998,3.4999998 0 0 1 -3.5001,-3.50001 3.4999998,3.4999998 0 0 1 1.0583,-2.50789 v -41.10607 a 3.4999998,3.4999998 0 0 1 -1.0583,-2.5027 3.4999998,3.4999998 0 0 1 3.5001,-3.5 3.4999998,3.4999998 0 0 1 2.5073,1.0583 h 8.106 a 3.4999998,3.4999998 0 0 1 2.5032,-1.0583 3.4999998,3.4999998 0 0 1 3.5,3.5 z"
         id="path1251"
         inkscape:connector-curvature="0" />
      <path
         inkscape:connector-curvature="0"
         style="display:inline;fill:#ffffff;fill-opacity:1;stroke:#ff0000;stroke-width:0.10000002;stroke-miterlimit:4;stroke-dasharray:none;stroke-opacity:1"
         d="m 2252.3956,116.23526 -0.069,0.1514 h -66.9437 v -12.99661 c 0.6613,-0.6563 1.0337,-1.5493 1.0346,-2.481 0,-0.932097 -0.373,-1.825397 -1.0346,-2.481997 v -0.044 h -0.044 c -0.6514,-0.6245 -1.5187,-0.9733 -2.421,-0.9736 -0.9007,0 -1.7662,0.3503 -2.4164,0.9736 h -57.149 c -0.6565,-0.6645 -1.5515,-1.0391 -2.4856,-1.0403 -0.9351,0 -1.8311,0.3751 -2.4883,1.0403 h -0.01 v 0.01 c -0.6425,0.6542 -1.0022,1.535 -1.0025,2.451997 0,0.9158 0.3609,1.7947 1.0025,2.448 v 13.09581 h -67.0139 v -13.00391 c 0.6564,-0.6558 1.0255,-1.5458 1.0263,-2.4737 0,-0.927797 -0.3699,-1.817497 -1.0263,-2.473297 v -0.053 h -0.053 c -0.6514,-0.6244 -1.5187,-0.9732 -2.4211,-0.9735 -0.9006,0 -1.7658,0.3502 -2.4159,0.9735 h -57.1494 c -0.6566,-0.6644 -1.5515,-1.0391 -2.4857,-1.0402 -0.935,0 -1.831,0.375 -2.4882,1.0402 -0.6476,0.6549 -1.0108,1.5384 -1.0113,2.459297 0,0.92 0.3644,1.8026 1.0113,2.4567 v 13.08761 H 1917.33 V 76.713453 h 13.0607 c 0.6549,0.6501 1.5401,1.0152 2.4629,1.0159 0.9226,0 1.8081,-0.366 2.4629,-1.0159 h 0.016 v -0.016 c 0.653,-0.6555 1.02,-1.5427 1.0206,-2.4681 0,-0.9248 -0.3678,-1.8118 -1.0206,-2.467 V -2.6359476 h 317.0628 z m -39.0079,-20.287607 a 3.4999999,3.4999999 0 0 0 -1.0584,-2.5074 v -41.106 a 3.4999999,3.4999999 0 0 0 1.0584,-2.503201 3.4999999,3.4999999 0 0 0 -3.5001,-3.500101 3.4999999,3.4999999 0 0 0 -2.5078,1.058401 h -8.106 a 3.4999999,3.4999999 0 0 0 -2.5027,-1.058401 3.4999999,3.4999999 0 0 0 -3.5,3.500101 3.4999999,3.4999999 0 0 0 1.0583,2.507901 v 41.106 a 3.4999999,3.4999999 0 0 0 -1.0583,2.5027 3.4999999,3.4999999 0 0 0 3.5,3.5 3.4999999,3.4999999 0 0 0 2.5074,-1.0583 h 8.1059 a 3.4999999,3.4999999 0 0 0 2.5032,1.0583 3.4999999,3.4999999 0 0 0 3.5001,-3.5 z"
         id="path1251-9" />
      <path
         style="fill:#ffffff;fill-opacity:1;stroke:#ff0000;stroke-width:0.37795278;stroke-miterlimit:4;stroke-dasharray:none;stroke-opacity:1"
         d="M 8237.6348 1962.5078 C 8237.6348 1962.5078 8240.7597 1988.098 8237.6348 2000.3027 C 8211.6252 2101.8965 8112.4627 2174.6152 8086.4531 2276.209 L 8090.2324 2344.2402 L 8090.2324 2412.2715 L 8158.2637 2412.2715 L 8158.2637 2362.7637 A 13.228346 13.228346 0 0 1 8154.3711 2353.4023 A 13.228346 13.228346 0 0 1 8167.5996 2340.1758 A 13.228346 13.228346 0 0 1 8177.1348 2344.2402 L 8260.3301 2344.2402 A 13.228346 13.228346 0 0 1 8269.8613 2340.1641 A 13.228346 13.228346 0 0 1 8283.0898 2353.3926 A 13.228346 13.228346 0 0 1 8279.209 2362.7402 L 8279.209 2412.2715 L 8347.2402 2412.2715 L 8347.2402 2362.9824 A 13.228346 13.228346 0 0 1 8343.1191 2353.4102 A 13.228346 13.228346 0 0 1 8356.3477 2340.1816 A 13.228346 13.228346 0 0 1 8365.877 2344.2402 L 8449.6855 2344.2402 A 13.228346 13.228346 0 0 1 8459.1445 2340.2422 A 13.228346 13.228346 0 0 1 8472.3711 2353.4707 A 13.228346 13.228346 0 0 1 8468.1855 2363.1113 L 8468.1855 2412.2715 L 8536.2168 2412.2715 L 8536.2168 2344.2402 L 8539.9961 2276.209 C 8513.9865 2174.6152 8414.824 2101.8965 8388.8145 2000.3027 C 8385.6899 1988.098 8388.8145 1962.5078 8388.8145 1962.5078 L 8347.2402 1962.5078 L 8279.209 1962.5078 L 8237.6348 1962.5078 z "
         transform="matrix(0.26458333,0,0,0.26458333,0,-923)"
         id="rect1434" />
    </g>
  </g>
</svg>
